<?xml version="1.0" encoding="UTF-8"?>
<svg width="108px" height="33px" viewBox="0 0 108 33" version="1.1" xmlns="http://www.w3.org/2000/svg" xmlns:xlink="http://www.w3.org/1999/xlink">
    <!-- Generator: Sketch 44 (41411) - http://www.bohemiancoding.com/sketch -->
    <title>logo</title>
    <desc>Created with Sketch.</desc>
    <defs></defs>
    <g id="Symbols" stroke="none" stroke-width="1" fill="none" fill-rule="evenodd">
        <g id="DESKTOP_menu_notif_final" transform="translate(-71.000000, -13.000000)" fill="#005386">
            <g id="MENU">
                <g id="logo" transform="translate(71.000000, 13.000000)">
                    <path d="M15.2483475,0.408295453 C18.032694,0.276733677 21.3273278,0.869854981 21.9410358,2.83453514 C22.9471284,6.05470094 17.8480023,10.7501079 13.4044975,13.0548079 C12.3154299,13.6198675 11.6552083,13.7749355 11.3802153,13.7363051 C11.1174897,13.6998614 11.0771096,13.4380134 11.1622995,13.2576171 C11.3207527,12.9192373 12.036859,12.2291757 12.9964379,11.4795287 C17.9982772,7.57276348 19.6245523,4.7068305 18.6803075,3.54500517 C18.0746074,2.80137136 15.5388451,2.2844174 12.9059663,2.2844174 C12.1910527,2.2844174 10.3127859,2.45023626 10.119916,1.78860079 C9.96265548,1.24631846 12.4839355,0.538946137 15.2483475,0.408295453" id="Fill-1"></path>
                    <path d="M9.35848989,15.1729658 C11.7458551,15.0335051 14.6459915,15.4503182 16.2748351,16.6968345 C17.0846865,17.3156793 17.6542369,18.4552953 17.3244602,19.7616365 C16.3843505,23.4694096 12.8752875,27.9549068 5.07807288,31.4018039 C2.59877097,32.4978752 0.649291525,32.9172382 0.240059049,32.6232133 C-0.19976039,32.3070238 1.07891531,29.8604781 1.46371337,29.048232 C2.70863794,26.4182886 4.26365103,23.857389 5.77963938,21.5130361 C6.33829093,20.650184 7.19999952,19.1539721 7.98067024,19.273622 C8.67942414,19.3809146 7.86095919,20.9712771 7.32252316,21.9826128 C6.41792251,23.6792872 3.9263155,28.3930999 4.7482962,28.6745714 C6.56540792,29.2979276 15.0909087,22.8119237 13.8338548,19.1996744 C13.2511204,17.5232032 9.54939473,17.3635393 7.2181056,17.3635393 C6.15775753,17.3635393 3.84176188,17.6140194 3.71361305,16.8021656 C3.57526857,16.0528828 7.23216857,15.2986963 9.35848989,15.1729658" id="Fill-3"></path>
                    <path d="M27.7974088,11.2010348 C29.2303999,11.4599185 30.3983775,11.6603509 30.6667037,12.2653133 C30.9676336,12.9509116 29.4070175,12.992387 28.62052,13.0085913 C24.8507021,13.0817038 22.5775134,13.1557809 22.4638366,14.4366961 C22.3158125,16.0856815 24.0748401,17.7454699 25.811725,20.0733018 C27.398668,22.1980007 29.2026781,24.2943419 28.682589,26.2498597 C28.0345262,28.6853348 25.0485905,29.2005945 22.2056227,29.2009803 C19.4822597,29.2034882 16.9022132,28.7665495 15.8186215,28.5512631 C14.4686215,28.284663 14.6691252,27.6177768 15.0295088,27.4032621 C15.4306905,27.1636692 17.7261961,27.157882 19.3213337,27.0631637 C20.6340225,26.9858072 24.4465564,26.9879292 25.0407447,26.0112313 C25.7698807,24.8159677 23.9850493,22.7693969 22.3464983,20.6263717 C20.3015351,17.9522683 18.0555452,15.1919345 19.2440962,13.1758434 C20.7823953,10.567329 25.2822209,10.7461555 27.7974088,11.2010348" id="Fill-5"></path>
                    <path d="M86.5544541,18.5132693 C89.5820019,18.5132693 90.7487155,17.4771934 91.2276377,15.083514 L91.9453177,11.3549091 C91.9933154,11.1054514 91.8440478,11.0299222 91.6543426,11.0299222 L90.1903246,11.0299222 L89.788058,13.175297 L89.5577394,14.3170753 L89.3657485,15.3093328 C89.0976295,16.6604019 88.2232976,17.2692479 86.7402914,17.2692479 C85.1088968,17.2692479 84.6723462,16.6753925 84.9276307,15.3093328 C84.9276307,15.3093328 84.9905727,14.9680101 85.0120223,14.8655748 L85.3495886,13.175297 L85.75291,11.0299222 L84.2880129,11.0299222 C84.0984834,11.0299222 83.9200304,11.1054514 83.8716811,11.3549091 L83.1520671,15.083514 C82.6606619,17.7130059 83.9689072,18.5132693 86.5544541,18.5132693 L86.5544541,18.5132693 Z M35.1278097,22.557444 C34.9087432,23.5871777 35.7145069,24.0849401 37.3515277,25.1010286 C39.1406291,26.2112884 39.5499283,26.2960425 39.3851889,26.8814418 C39.2531512,27.3528746 38.7837231,27.3724776 37.9777835,27.3724776 L34.7893643,27.3724776 C34.4273596,27.3724776 34.2169081,27.5212297 34.153966,27.8450635 L34.0259721,28.4983045 L38.0458242,28.4983045 C39.8860881,28.4983045 41.039088,28.384338 41.4578812,27.2602408 C41.6611242,26.7117413 41.6590144,26.1449842 41.1625107,25.5847613 C40.9096876,25.299557 40.5364306,25.0493305 40.021642,24.7589371 C37.7237297,23.4603348 37.1238463,23.3100452 37.2690701,22.6808275 C37.3511761,22.3272049 37.59556,22.3141362 38.4596946,22.3141362 L41.1547748,22.3141362 C41.5183618,22.3141362 41.7288133,22.1651919 41.7917554,21.8417425 L41.9244963,21.1594814 L38.5138459,21.1594814 C36.5821578,21.1594814 35.4219495,21.1708204 35.1278097,22.557444 L35.1278097,22.557444 Z M52.8556669,22.557444 C52.6376553,23.5871777 53.4432432,24.0849401 55.0788575,25.1010286 C56.8702445,26.2112884 57.2790162,26.2960425 57.1130461,26.8814418 C56.980481,27.3528746 56.5112287,27.3724776 55.7056407,27.3724776 L52.5181006,27.3724776 C52.1557442,27.3724776 51.9449411,27.5212297 51.881999,27.8450635 L51.7554117,28.4983045 L55.7749122,28.4983045 C57.6150002,28.4983045 58.7674726,28.384338 59.1853867,27.2602408 C59.3910912,26.7117413 59.3886298,26.1449842 58.892126,25.5847613 C58.6377206,25.299557 58.2655186,25.0493305 57.7491476,24.7589371 C55.4522902,23.4603348 54.8529342,23.3100452 54.9978064,22.6808275 C55.0788575,22.3272049 55.3234172,22.3141362 56.1880792,22.3141362 L58.8847418,22.3141362 C59.2463948,22.3141362 59.4575496,22.1651919 59.5197884,21.8417425 L59.6535842,21.1594814 L56.2424063,21.1594814 C54.3103667,21.1594814 53.1508616,21.1708204 52.8556669,22.557444 L52.8556669,22.557444 Z M97.7841599,22.557444 C97.5665,23.5871777 98.3720879,24.0849401 100.00612,25.1010286 C101.797683,26.2112884 102.206982,26.2960425 102.040308,26.8814418 C101.909326,27.3528746 101.439898,27.3724776 100.634837,27.3724776 L97.446242,27.3724776 C97.0837098,27.3724776 96.8732584,27.5212297 96.8101405,27.8450635 L96.6835531,28.4983045 L100.703757,28.4983045 C102.542614,28.4983045 103.695262,28.384338 104.114056,27.2602408 C104.318705,26.7117413 104.316244,26.1449842 103.819388,25.5847613 C103.566565,25.299557 103.192781,25.0493305 102.677113,24.7589371 C100.380783,23.4603348 99.7798449,23.3100452 99.9261236,22.6808275 C100.00612,22.3272049 100.252614,22.3141362 101.116924,22.3141362 L103.813059,22.3141362 C104.174712,22.3141362 104.384988,22.1651919 104.448106,21.8417425 L104.581726,21.1594814 L101.171427,21.1594814 C99.2390356,21.1594814 98.0793546,21.1708204 97.7841599,22.557444 L97.7841599,22.557444 Z M71.2553162,17.111463 C71.4589109,16.562387 71.4571527,15.9950532 70.9599457,15.4359835 C70.7067709,15.1503948 70.3342173,14.9007449 69.8176705,14.6080453 C67.5206373,13.309443 66.9211055,13.1610752 67.0654502,12.5316653 C67.1472046,12.1790036 67.3926434,12.1643974 68.2578329,12.1643974 L70.9522098,12.1643974 C71.3154452,12.1643974 71.5260725,12.0160297 71.5893662,11.693349 L71.7215796,11.0076286 L68.3107534,11.0076286 C66.3787138,11.0076286 65.2192087,11.0201207 64.9231349,12.4080896 C64.7060024,13.4366702 65.5117661,13.9357779 67.1472046,14.9520586 C68.9373609,16.0621262 69.3457809,16.146496 69.1822723,16.7332405 C69.0488281,17.2046733 68.5801032,17.2233154 67.7752185,17.2233154 L64.5873267,17.2233154 C64.2240913,17.2233154 64.0131124,17.3722597 63.9501703,17.6957091 L63.8241104,18.3502954 L67.8434351,18.3502954 C69.6824682,18.3502954 70.8368746,18.2367133 71.2553162,17.111463 L71.2553162,17.111463 Z M62.690626,17.111463 C62.8938691,16.562387 62.8921109,15.9950532 62.3964862,15.4359835 C62.1422566,15.1503948 61.7691755,14.9007449 61.2536836,14.6080453 C58.9552439,13.309443 58.3565911,13.1610752 58.5021666,12.5316653 C58.5828661,12.1790036 58.8268984,12.1643974 59.6936702,12.1643974 L62.3873438,12.1643974 C62.750755,12.1643974 62.9615582,12.0160297 63.0234453,11.693349 L63.1581202,11.0076286 L59.7462391,11.0076286 C57.8141994,11.0076286 56.6548702,11.0201207 56.3602029,12.4080896 C56.1414881,13.4366702 56.9479551,13.9357779 58.5828661,14.9520586 C60.3726707,16.0621262 60.7821457,16.146496 60.6177579,16.7332405 C60.4864236,17.2046733 60.0162921,17.2233154 59.2094735,17.2233154 L56.0235157,17.2233154 C55.6597528,17.2233154 55.4500046,17.3722597 55.385656,17.6957091 L55.2590686,18.3502954 L59.279624,18.3502954 C61.1191846,18.3502954 62.2718328,18.2367133 62.690626,17.111463 L62.690626,17.111463 Z M100.079435,11.0299222 C99.7163754,11.0299222 99.5117258,11.1536901 99.4575746,11.4275555 L99.3135814,12.1663193 L102.196081,12.1663193 L100.994556,18.3502954 L102.287154,18.3502954 C102.650565,18.3502954 102.862247,18.2013511 102.93398,17.8294707 L104.036169,12.1663193 L106.441505,12.1663193 C106.782763,12.1663193 106.902142,12.0160297 106.961216,11.7177567 L107.093606,11.0299222 L100.079435,11.0299222 L100.079435,11.0299222 Z M37.2766302,13.0651743 C37.0953641,13.0651743 36.9584036,13.18875 36.9344927,13.3132867 L35.953968,18.3502954 L40.2904644,18.3502954 C42.7190078,18.3502954 44.4022681,17.4481732 44.9277815,14.6432153 C45.3194991,12.5554964 44.4145752,11.0299222 41.9403197,11.0299222 L36.6960865,11.0299222 C36.6960865,11.0299222 36.6848343,11.0816203 36.6744611,11.1248622 C36.5561371,11.6172433 36.6183759,12.1607459 37.4473473,12.1607459 L41.2593852,12.1607459 C43.0933196,12.1607459 43.3554609,13.0778586 42.988885,14.6929916 C42.6289901,16.2787201 42.0015036,17.0951272 40.624866,17.2200482 L38.01365,17.2200482 L38.820117,13.0651743 L37.2766302,13.0651743 L37.2766302,13.0651743 Z M99.0523192,17.6651515 C99.114558,17.3445849 99.0020359,17.2200482 98.7080719,17.2200482 L94.7806989,17.2200482 L95.9366877,11.2778424 C95.9597195,11.1536901 95.8700535,11.0299222 95.7123467,11.0299222 L94.1456523,11.0299222 L92.7227751,18.3502954 L98.9183476,18.3502954 L99.0523192,17.6651515 L99.0523192,17.6651515 Z M87.3584597,21.1798531 L85.7001652,21.1798531 L82.489769,24.0326654 L80.3892978,21.1798531 L78.7322341,21.1798531 C78.460247,21.1798531 78.3106278,21.3524363 78.2541909,21.6507094 L76.9223864,28.4983045 L78.3299675,28.4983045 C78.6253381,28.4983045 78.7900774,28.3501289 78.842998,28.0770323 L79.8404009,22.9520023 L81.458082,25.2595822 C81.5057281,25.3579816 81.6411062,25.4827104 81.8443493,25.4827104 L82.5724024,25.4827104 C82.7767004,25.4827104 82.9586697,25.3579816 83.046226,25.2595822 L85.5602159,22.9520023 L84.5628129,28.0770323 C84.5100682,28.3501289 84.61714,28.4983045 84.9135654,28.4983045 L86.3197401,28.4983045 L87.653127,21.6507094 C87.709388,21.3524363 87.63115,21.1798531 87.3584597,21.1798531 L87.3584597,21.1798531 Z M69.8194287,21.6507094 L68.488679,28.4983045 L75.2521364,28.4983045 L75.3945472,27.7664593 C75.4536213,27.4676097 75.3806578,27.3684417 75.0399268,27.3684417 L70.5469544,27.3684417 L70.9284746,25.4042985 L74.900329,25.4042985 C75.0142577,25.4042985 75.096012,25.330499 75.1162308,25.2301777 L75.267784,24.4510548 C75.2862447,24.3528476 75.2326209,24.2771263 75.1199229,24.2771263 L71.1468378,24.2771263 L71.5288855,22.3160581 L75.8645028,22.3160581 C76.0688007,22.3160581 76.2720438,22.3160581 76.3270741,22.0429614 L76.4930442,21.1798531 L70.3876653,21.1798531 C70.070142,21.1798531 69.8818433,21.3268756 69.8194287,21.6507094 L69.8194287,21.6507094 Z M89.9026899,21.6507094 L88.5714128,28.4983045 L95.33698,28.4983045 L95.4776327,27.7664593 C95.5361793,27.4676097 95.4642707,27.3684417 95.1245946,27.3684417 L90.6303915,27.3684417 L91.0124392,25.4042985 L94.9839419,25.4042985 C95.0978706,25.4042985 95.1806798,25.330499 95.198613,25.2301777 L95.3512211,24.4510548 C95.3705608,24.3528476 95.3148272,24.2771263 95.2035358,24.2771263 L91.2309782,24.2771263 L91.6117952,22.3160581 L95.9477641,22.3160581 C96.1529411,22.3160581 96.3558325,22.3160581 96.4085772,22.0429614 L96.5764813,21.1798531 L90.471454,21.1798531 C90.1530516,21.1798531 89.9668627,21.3268756 89.9026899,21.6507094 L89.9026899,21.6507094 Z M49.3361865,21.4266202 L48.686723,24.7589371 C47.5525354,25.1073708 44.6135987,25.7446603 45.0724779,23.3878806 L45.5021717,21.1798531 L43.9574542,21.1798531 C43.7754848,21.1798531 43.6379969,21.3018914 43.6137343,21.4266202 L43.2239507,23.4370803 C42.4807774,27.2585111 46.100297,26.7365334 48.4428665,26.0181413 L47.960428,28.4983045 L49.2530256,28.4983045 C49.6169643,28.4983045 49.82724,28.3501289 49.900731,27.9786329 L51.2205801,21.1798531 L49.655468,21.1798531 C49.4968821,21.1798531 49.3592184,21.3018914 49.3361865,21.4266202 L49.3361865,21.4266202 Z M68.658517,21.8663423 L68.7933677,21.1802375 L61.7799003,21.1802375 C61.4166649,21.1802375 61.2107846,21.3032367 61.1575124,21.5761411 L61.0131676,22.3141362 L63.89514,22.3141362 L62.6943182,28.4983045 L63.9874433,28.4983045 C64.3499754,28.4983045 64.5597237,28.3501289 64.6346212,27.9786329 L65.7348764,22.3141362 L68.1409154,22.3141362 C68.4812947,22.3141362 68.6010253,22.1651919 68.658517,21.8663423 L68.658517,21.8663423 Z M48.4876995,14.1068236 C48.7624996,12.6808018 49.5941082,12.1643974 51.0779935,12.1643974 C52.6459186,12.1643974 53.0571518,12.7526795 52.8020431,14.1068236 C52.8020431,14.1068236 52.7376945,14.4450713 52.7157175,14.5471222 C52.6851256,14.698565 52.6155025,15.0921624 52.2090164,15.0921624 L48.2967636,15.0921624 L48.4876995,14.1068236 L48.4876995,14.1068236 Z M46.27875,18.3502954 L47.6627718,18.3502954 L48.0659174,16.221833 L52.3785028,16.221833 L51.9760605,18.3502954 L53.3606098,18.3502954 C53.542755,18.3502954 53.7157577,18.2753427 53.7634038,18.0272303 L54.4835452,14.3309127 C55.01152,11.5267236 53.4281231,10.9311385 51.2937194,10.9311385 C48.7364788,10.9311385 47.2768562,11.5730404 46.7195202,14.3309127 L46.0006094,18.0272303 C45.9527875,18.2753427 46.096429,18.3502954 46.27875,18.3502954 L46.27875,18.3502954 Z M75.3869871,14.1068236 C75.6626663,12.6808018 76.4930442,12.1643974 77.9769294,12.1643974 C79.5455579,12.1643974 79.9557361,12.7526795 79.7015065,14.1068236 C79.7015065,14.1068236 79.6376853,14.4450713 79.6146535,14.5471222 C79.5838857,14.698565 79.5144385,15.0921624 79.1086557,15.0921624 L75.1953479,15.0921624 L75.3869871,14.1068236 L75.3869871,14.1068236 Z M73.1780376,18.3502954 L74.5624111,18.3502954 L74.9662599,16.221833 L79.2777904,16.221833 L78.8748207,18.3502954 L80.2600732,18.3502954 C80.4418667,18.3502954 80.6153969,18.2753427 80.6632188,18.0272303 L81.3817779,14.3309127 C81.9120383,11.5267236 80.3279381,10.9311385 78.1933587,10.9311385 C75.6354148,10.9311385 74.1757922,11.5730404 73.6181045,14.3309127 L72.8995454,18.0272303 C72.8524268,18.2753427 72.9950134,18.3502954 73.1780376,18.3502954 L73.1780376,18.3502954 Z" id="Fill-6"></path>
                </g>
            </g>
        </g>
    </g>
</svg>