<svg xmlns="http://www.w3.org/2000/svg" version="1.1" xmlns:xlink="http://www.w3.org/1999/xlink" xmlns:svgjs="http://svgjs.dev/svgjs" width="2000" height="999" viewBox="0 0 2000 999"><g transform="matrix(1,0,0,1,-1.2121212121212466,-1.1242827406218225)"><svg viewBox="0 0 396 198" data-background-color="#ffffff" preserveAspectRatio="xMidYMid meet" height="999" width="2000" xmlns="http://www.w3.org/2000/svg" xmlns:xlink="http://www.w3.org/1999/xlink"><defs></defs><g id="tight-bounds" transform="matrix(1,0,0,1,0.2400000000000091,0.22283081345658218)"><svg viewBox="0 0 395.52 197.55433837308684" height="197.55433837308684" width="395.52"><g><svg viewBox="0 0 395.52 197.55433837308684" height="197.55433837308684" width="395.52"><g><svg viewBox="0 0 395.52 197.55433837308684" height="197.55433837308684" width="395.52"><g><svg viewBox="0 0 395.52000000000004 197.55433837308686" height="197.55433837308684" width="395.52"><g><svg viewBox="0 0 395.52000000000004 197.55433837308686" height="197.55433837308686" width="395.52000000000004"><g><svg viewBox="0 0 395.52000000000004 197.55433837308686" height="197.55433837308686" width="395.52000000000004"><g><svg viewBox="0 0 395.52000000000004 122.09212569316081" height="122.09212569316081" width="395.52000000000004"><g transform="matrix(1,0,0,1,0,0)"><svg width="395.52000000000004" viewBox="1.85 -37 162.29 50.1" height="122.09212569316081" data-palette-color="#0080ff"><path d="M1.85-13.9Q1.85-18.05 3.58-21.25 5.3-24.45 8.28-26.23 11.25-28 14.85-28L14.85-28Q18.1-28 20.53-26.73 22.95-25.45 24.4-23.55L24.4-23.55 24.4-27.55 30.15-27.55 30.15 0 24.4 0 24.4-4.1Q22.95-2.15 20.45-0.85 17.95 0.45 14.75 0.45L14.75 0.45Q11.2 0.45 8.25-1.38 5.3-3.2 3.58-6.48 1.85-9.75 1.85-13.9L1.85-13.9ZM24.4-13.8Q24.4-16.65 23.23-18.75 22.05-20.85 20.15-21.95 18.25-23.05 16.05-23.05L16.05-23.05Q13.85-23.05 11.95-21.98 10.05-20.9 8.88-18.82 7.7-16.75 7.7-13.9L7.7-13.9Q7.7-11.05 8.88-8.9 10.05-6.75 11.98-5.63 13.9-4.5 16.05-4.5L16.05-4.5Q18.25-4.5 20.15-5.6 22.05-6.7 23.23-8.83 24.4-10.95 24.4-13.8L24.4-13.8ZM43.35-23.45Q44.8-25.45 47.32-26.73 49.85-28 52.95-28L52.95-28Q56.6-28 59.55-26.25 62.5-24.5 64.2-21.28 65.9-18.05 65.9-13.9L65.9-13.9Q65.9-9.75 64.2-6.48 62.5-3.2 59.52-1.38 56.55 0.45 52.95 0.45L52.95 0.45Q49.75 0.45 47.27-0.8 44.8-2.05 43.35-4L43.35-4 43.35 0 37.65 0 37.65-37 43.35-37 43.35-23.45ZM60.1-13.9Q60.1-16.75 58.92-18.82 57.75-20.9 55.82-21.98 53.9-23.05 51.7-23.05L51.7-23.05Q49.55-23.05 47.62-21.95 45.7-20.85 44.52-18.75 43.35-16.65 43.35-13.8L43.35-13.8Q43.35-10.95 44.52-8.83 45.7-6.7 47.62-5.6 49.55-4.5 51.7-4.5L51.7-4.5Q53.9-4.5 55.82-5.63 57.75-6.75 58.92-8.9 60.1-11.05 60.1-13.9L60.1-13.9ZM69.64-13.9Q69.64-18.05 71.37-21.25 73.09-24.45 76.07-26.23 79.05-28 82.7-28L82.7-28Q85.9-28 88.37-26.7 90.84-25.4 92.2-23.55L92.2-23.55 92.2-27.55 97.95-27.55 97.95 13.1 92.2 13.1 92.2-4Q90.84-2.15 88.3-0.85 85.75 0.45 82.5 0.45L82.5 0.45Q78.95 0.45 76.02-1.38 73.09-3.2 71.37-6.48 69.64-9.75 69.64-13.9L69.64-13.9ZM92.2-13.8Q92.2-16.65 91.02-18.75 89.84-20.85 87.95-21.95 86.05-23.05 83.84-23.05L83.84-23.05Q81.65-23.05 79.75-21.98 77.84-20.9 76.67-18.82 75.5-16.75 75.5-13.9L75.5-13.9Q75.5-11.05 76.67-8.9 77.84-6.75 79.77-5.63 81.7-4.5 83.84-4.5L83.84-4.5Q86.05-4.5 87.95-5.6 89.84-6.7 91.02-8.83 92.2-10.95 92.2-13.8L92.2-13.8ZM111.14-23.5Q112.59-25.4 115.09-26.7 117.59-28 120.74-28L120.74-28Q124.34-28 127.32-26.23 130.29-24.45 131.99-21.25 133.69-18.05 133.69-13.9L133.69-13.9Q133.69-9.75 131.99-6.48 130.29-3.2 127.32-1.38 124.34 0.45 120.74 0.45L120.74 0.45Q117.59 0.45 115.14-0.83 112.69-2.1 111.14-4L111.14-4 111.14 13.1 105.44 13.1 105.44-27.55 111.14-27.55 111.14-23.5ZM127.89-13.9Q127.89-16.75 126.72-18.82 125.54-20.9 123.62-21.98 121.69-23.05 119.49-23.05L119.49-23.05Q117.34-23.05 115.42-21.95 113.49-20.85 112.32-18.75 111.14-16.65 111.14-13.8L111.14-13.8Q111.14-10.95 112.32-8.83 113.49-6.7 115.42-5.6 117.34-4.5 119.49-4.5L119.49-4.5Q121.69-4.5 123.62-5.63 125.54-6.75 126.72-8.9 127.89-11.05 127.89-13.9L127.89-13.9ZM158.24-27.55L164.14-27.55 147.24 12.95 141.34 12.95 146.94-0.45 136.09-27.55 142.44-27.55 150.19-6.55 158.24-27.55Z" opacity="1" transform="matrix(1,0,0,1,0,0)" fill="#0080ff" class="undefined-text-0" data-fill-palette-color="primary" id="text-0"></path></svg></g></svg></g><g transform="matrix(1,0,0,1,0,150.91514635829944)"><svg viewBox="0 0 395.52000000000004 46.63919201478743" height="46.63919201478743" width="395.52000000000004"><g transform="matrix(1,0,0,1,0,0)"><svg width="395.52000000000004" viewBox="1.3 -47.35 513.49 60.550000000000004" height="46.63919201478743" data-palette-color="#0023ff"><path d="M27.15 0L24.85-6.65 10.95-6.65 8.65 0 1.3 0 13.85-34.95 22-34.95 34.55 0 27.15 0ZM12.85-12.25L22.95-12.25 17.9-26.85 12.85-12.25ZM56.07-23.65Q57.42-25.65 59.79-26.9 62.17-28.15 65.22-28.15L65.22-28.15Q68.77-28.15 71.64-26.4 74.52-24.65 76.19-21.43 77.87-18.2 77.87-13.95L77.87-13.95Q77.87-9.7 76.19-6.43 74.52-3.15 71.64-1.35 68.77 0.45 65.22 0.45L65.22 0.45Q62.12 0.45 59.79-0.78 57.47-2 56.07-3.95L56.07-3.95 56.07 0 49.07 0 49.07-37 56.07-37 56.07-23.65ZM70.72-13.95Q70.72-16.45 69.69-18.28 68.67-20.1 66.99-21.05 65.32-22 63.37-22L63.37-22Q61.47-22 59.79-21.03 58.12-20.05 57.09-18.2 56.07-16.35 56.07-13.85L56.07-13.85Q56.07-11.35 57.09-9.5 58.12-7.65 59.79-6.68 61.47-5.7 63.37-5.7L63.37-5.7Q65.32-5.7 66.99-6.7 68.67-7.7 69.69-9.55 70.72-11.4 70.72-13.95L70.72-13.95ZM90.99-13.95Q90.99-18.15 92.66-21.4 94.34-24.65 97.21-26.4 100.09-28.15 103.64-28.15L103.64-28.15Q106.74-28.15 109.06-26.9 111.39-25.65 112.79-23.75L112.79-23.75 112.79-27.7 119.84-27.7 119.84 0 112.79 0 112.79-4.05Q111.44-2.1 109.06-0.83 106.69 0.45 103.59 0.45L103.59 0.45Q100.09 0.45 97.21-1.35 94.34-3.15 92.66-6.43 90.99-9.7 90.99-13.95L90.99-13.95ZM112.79-13.85Q112.79-16.4 111.79-18.23 110.79-20.05 109.09-21.03 107.39-22 105.44-22L105.44-22Q103.49-22 101.84-21.05 100.19-20.1 99.16-18.28 98.14-16.45 98.14-13.95L98.14-13.95Q98.14-11.45 99.16-9.58 100.19-7.7 101.86-6.7 103.54-5.7 105.44-5.7L105.44-5.7Q107.39-5.7 109.09-6.68 110.79-7.65 111.79-9.47 112.79-11.3 112.79-13.85L112.79-13.85ZM134.71-13.9Q134.71-18.05 136.43-21.28 138.16-24.5 141.11-26.3 144.06-28.1 147.61-28.1L147.61-28.1Q150.56-28.1 152.83-26.98 155.11-25.85 156.51-24.1L156.51-24.1 156.51-27.7 163.56-27.7 163.56 13.2 156.51 13.2 156.51-3.8Q155.11-2 152.76-0.8 150.41 0.4 147.46 0.4L147.46 0.4Q143.96 0.4 141.03-1.43 138.11-3.25 136.41-6.5 134.71-9.75 134.71-13.9L134.71-13.9ZM156.51-13.85Q156.51-16.4 155.46-18.25 154.41-20.1 152.73-21.05 151.06-22 149.16-22L149.16-22Q147.31-22 145.63-21.05 143.96-20.1 142.91-18.28 141.86-16.45 141.86-13.9L141.86-13.9Q141.86-11.35 142.91-9.47 143.96-7.6 145.63-6.65 147.31-5.7 149.16-5.7L149.16-5.7Q151.06-5.7 152.73-6.65 154.41-7.6 155.46-9.45 156.51-11.3 156.51-13.85L156.51-13.85ZM199.33-27.7L206.38-27.7 206.38 0 199.33 0 199.33-3.5Q197.98-1.7 195.8-0.68 193.63 0.35 191.08 0.35L191.08 0.35Q187.83 0.35 185.33-1.03 182.83-2.4 181.4-5.08 179.98-7.75 179.98-11.45L179.98-11.45 179.98-27.7 186.98-27.7 186.98-12.45Q186.98-9.15 188.63-7.38 190.28-5.6 193.13-5.6L193.13-5.6Q196.03-5.6 197.68-7.38 199.33-9.15 199.33-12.45L199.33-12.45 199.33-27.7ZM233.7 0.45Q230.3 0.45 227.6-0.78 224.9-2 223.32-4.1 221.75-6.2 221.6-8.75L221.6-8.75 228.65-8.75Q228.85-7.15 230.22-6.1 231.6-5.05 233.65-5.05L233.65-5.05Q235.65-5.05 236.77-5.85 237.9-6.65 237.9-7.9L237.9-7.9Q237.9-9.25 236.52-9.93 235.15-10.6 232.15-11.4L232.15-11.4Q229.05-12.15 227.07-12.95 225.1-13.75 223.67-15.4 222.25-17.05 222.25-19.85L222.25-19.85Q222.25-22.15 223.57-24.05 224.9-25.95 227.37-27.05 229.85-28.15 233.2-28.15L233.2-28.15Q238.15-28.15 241.1-25.68 244.05-23.2 244.35-19L244.35-19 237.65-19Q237.5-20.65 236.27-21.63 235.05-22.6 233-22.6L233-22.6Q231.1-22.6 230.07-21.9 229.05-21.2 229.05-19.95L229.05-19.95Q229.05-18.55 230.45-17.82 231.85-17.1 234.8-16.35L234.8-16.35Q237.8-15.6 239.75-14.8 241.7-14 243.12-12.33 244.55-10.65 244.6-7.9L244.6-7.9Q244.6-5.5 243.27-3.6 241.95-1.7 239.47-0.63 237 0.45 233.7 0.45L233.7 0.45ZM272.07-47.35L278.92-47.35 265.42 9.05 258.57 9.05 272.07-47.35ZM319.74-24.1Q319.74-21.3 318.41-18.85 317.09-16.4 314.26-14.9 311.44-13.4 307.14-13.4L307.14-13.4 301.29-13.4 301.29 0 294.29 0 294.29-34.9 307.14-34.9Q311.19-34.9 314.04-33.5 316.89-32.1 318.31-29.65 319.74-27.2 319.74-24.1L319.74-24.1ZM306.84-19.05Q309.74-19.05 311.14-20.38 312.54-21.7 312.54-24.1L312.54-24.1Q312.54-29.2 306.84-29.2L306.84-29.2 301.29-29.2 301.29-19.05 306.84-19.05ZM353.56-27.7L361.01-27.7 343.86 13.1 336.41 13.1 342.41-0.7 331.31-27.7 339.16-27.7 346.31-8.35 353.56-27.7ZM388.93-21.95L382.73-21.95 382.73-8.55Q382.73-7.15 383.4-6.53 384.08-5.9 385.68-5.9L385.68-5.9 388.93-5.9 388.93 0 384.53 0Q375.68 0 375.68-8.6L375.68-8.6 375.68-21.95 372.38-21.95 372.38-27.7 375.68-27.7 375.68-34.55 382.73-34.55 382.73-27.7 388.93-27.7 388.93-21.95ZM419.4-28.1Q422.55-28.1 425-26.73 427.45-25.35 428.82-22.68 430.2-20 430.2-16.25L430.2-16.25 430.2 0 423.2 0 423.2-15.3Q423.2-18.6 421.55-20.38 419.9-22.15 417.05-22.15L417.05-22.15Q414.15-22.15 412.47-20.38 410.8-18.6 410.8-15.3L410.8-15.3 410.8 0 403.8 0 403.8-37 410.8-37 410.8-24.25Q412.15-26.05 414.4-27.08 416.65-28.1 419.4-28.1L419.4-28.1ZM458.97 0.45Q454.97 0.45 451.77-1.33 448.57-3.1 446.74-6.35 444.92-9.6 444.92-13.85L444.92-13.85Q444.92-18.1 446.79-21.35 448.67-24.6 451.92-26.38 455.17-28.15 459.17-28.15L459.17-28.15Q463.17-28.15 466.42-26.38 469.67-24.6 471.54-21.35 473.42-18.1 473.42-13.85L473.42-13.85Q473.42-9.6 471.49-6.35 469.57-3.1 466.29-1.33 463.02 0.45 458.97 0.45L458.97 0.45ZM458.97-5.65Q460.87-5.65 462.54-6.58 464.22-7.5 465.22-9.35 466.22-11.2 466.22-13.85L466.22-13.85Q466.22-17.8 464.14-19.93 462.07-22.05 459.07-22.05L459.07-22.05Q456.07-22.05 454.04-19.93 452.02-17.8 452.02-13.85L452.02-13.85Q452.02-9.9 453.99-7.78 455.97-5.65 458.97-5.65L458.97-5.65ZM503.74-28.1Q508.69-28.1 511.74-24.98 514.79-21.85 514.79-16.25L514.79-16.25 514.79 0 507.79 0 507.79-15.3Q507.79-18.6 506.14-20.38 504.49-22.15 501.64-22.15L501.64-22.15Q498.74-22.15 497.06-20.38 495.39-18.6 495.39-15.3L495.39-15.3 495.39 0 488.39 0 488.39-27.7 495.39-27.7 495.39-24.25Q496.79-26.05 498.96-27.08 501.14-28.1 503.74-28.1L503.74-28.1Z" opacity="1" transform="matrix(1,0,0,1,0,0)" fill="#0023ff" class="undefined-text-1" data-fill-palette-color="secondary" id="text-1"></path></svg></g></svg></g></svg></g></svg></g><g></g></svg></g></svg></g></svg></g></svg><rect width="395.52" height="197.55433837308684" fill="none" stroke="none" visibility="hidden"></rect></g></svg></g></svg>