<svg id="Layer_1" data-name="Layer 1" xmlns="http://www.w3.org/2000/svg" viewBox="0 0 539.45 67.5"><defs><style>.cls-1{fill:#06262d;}.cls-2{fill:#43b02a;}.cls-3{fill:#43b03f;}</style></defs><path class="cls-1" d="M104,14.9a1,1,0,0,0-.9-.6h-.5a.91.91,0,0,0-.9.6l-17,36.8a1,1,0,0,0,.9,1.4h4.8A1.57,1.57,0,0,0,92,52l2.7-5.9h16.4l2.7,5.9a1.58,1.58,0,0,0,1.6,1.1h4.8a.93.93,0,0,0,.9-1.4ZM97.2,40.1l5.4-12h.2l5.5,12Z"/><path class="cls-1" d="M156.1,14.9h-5a1,1,0,0,0-1,1V38.5H150L127.2,14.3h-1.4a1,1,0,0,0-1,1V52.1a1.08,1.08,0,0,0,1,1h5a1,1,0,0,0,1-1V28.6h.1l22.9,25.1h1.3a1,1,0,0,0,1-1V15.9A.94.94,0,0,0,156.1,14.9Z"/><path class="cls-1" d="M180.7,14.9a1,1,0,0,0-.9-.6h-.5a.91.91,0,0,0-.9.6l-17,36.8a1,1,0,0,0,.9,1.4h4.8a1.57,1.57,0,0,0,1.6-1.1l2.7-5.9h16.4l2.7,5.9a1.58,1.58,0,0,0,1.6,1.1h4.8a.93.93,0,0,0,.9-1.4Zm-6.8,25.2,5.4-12h.2l5.5,12Z"/><path class="cls-1" d="M227.5,43.4a1.06,1.06,0,0,0-1.4,0,13,13,0,0,1-8.4,3.1,12.42,12.42,0,0,1-12.3-12.6c0-6.9,5.2-12.8,12.2-12.8a12.91,12.91,0,0,1,8.4,3.2,1,1,0,0,0,1.4,0l3.3-3.4a1,1,0,0,0-.1-1.5,18.6,18.6,0,0,0-13.2-5.1,19.7,19.7,0,1,0,0,39.4,18.74,18.74,0,0,0,13.3-5.3,1.09,1.09,0,0,0,.1-1.5Z"/><path class="cls-1" d="M253.4,14.3a19.7,19.7,0,1,0,19.7,19.8A19.61,19.61,0,0,0,253.4,14.3Zm0,32.3a12.55,12.55,0,0,1,0-25.1,12.55,12.55,0,1,1,0,25.1Z"/><path class="cls-1" d="M310.4,14.9h-5a1,1,0,0,0-1,1V38.5h-.1L281.5,14.3h-1.4a1,1,0,0,0-1,1V52.1a1.08,1.08,0,0,0,1,1h5a1,1,0,0,0,1-1V28.6h.1l22.9,25.1h1.3a1,1,0,0,0,1-1V15.9A1.08,1.08,0,0,0,310.4,14.9Z"/><path class="cls-1" d="M332.3,14.9h-13a1.08,1.08,0,0,0-1,1V52.1a1,1,0,0,0,1,1h13a19.1,19.1,0,1,0,0-38.2Zm-.6,31.6h-6.3v-25h6.2A12.09,12.09,0,0,1,343.9,34,12,12,0,0,1,331.7,46.5Z"/><path class="cls-1" d="M388.1,51.8,371.2,15a1,1,0,0,0-.9-.6h-.5a.91.91,0,0,0-.9.6l-17,36.8a1,1,0,0,0,.9,1.4h4.8a1.57,1.57,0,0,0,1.6-1.1l2.7-5.9h16.4l2.7,5.9a1.58,1.58,0,0,0,1.6,1.1h4.8A.94.94,0,0,0,388.1,51.8ZM364.5,40.1l5.4-12h.2l5.5,12Z"/><path class="cls-1" d="M394.9,52.6h.3a.22.22,0,0,0,.2-.2v-1h.6l.4,1.1c0,.1.1.1.2.1h.4a.22.22,0,0,0,.2-.2c-.2-.3-.3-.7-.5-1a1,1,0,0,0,.7-1,1,1,0,0,0-1.1-1.1H395a.22.22,0,0,0-.2.2v2.9C394.8,52.5,394.8,52.6,394.9,52.6Zm.5-2.7h.8a.37.37,0,0,1,.4.4.43.43,0,0,1-.4.4h-.8Z"/><path class="cls-1" d="M395.9,54.2a3.16,3.16,0,0,0,3.2-3.2,3.2,3.2,0,1,0-3.2,3.2Zm0-5.9a2.6,2.6,0,1,1-2.6,2.6A2.65,2.65,0,0,1,395.9,48.3Z"/><path class="cls-2" d="M13.9,51.7v-.2a36.79,36.79,0,0,1,.5-5.8v-.2l-.2-.1A49.67,49.67,0,0,1,9,42.9l-.2-.1-.1.2a53.76,53.76,0,0,0-2.8,7l-.1.2.2.1a39.14,39.14,0,0,0,7.6,1.4Z"/><path class="cls-2" d="M19.1,17.5h0c-1.5,0-2.9.1-4.4.2a33.92,33.92,0,0,0,.8,4.4A20.36,20.36,0,0,1,19.1,17.5Z"/><path class="cls-2" d="M13.9,53.5v-.2h-.2a51.94,51.94,0,0,1-6.5-1.1l-.6-.1.3.5A34.87,34.87,0,0,0,14,60.4l.4.4v-.7A51.43,51.43,0,0,1,13.9,53.5Z"/><path class="cls-2" d="M24.4,1.8A33.78,33.78,0,0,0,17,5.4a47,47,0,0,1,5.1,1.2A52.38,52.38,0,0,1,24.4,1.8Z"/><path class="cls-2" d="M35.3,0C34,0,32.7.1,31.5.2a39.81,39.81,0,0,1,5.1,4.1l1.3,1.2L36.6,6.8a34.65,34.65,0,0,0-3.2,3.4v.1a6.12,6.12,0,0,0-.5.6,19.27,19.27,0,0,1,2.4-.1,23,23,0,0,1,0,46,22.39,22.39,0,0,1-12-3.4,45.33,45.33,0,0,1-5.2.3,19.27,19.27,0,0,1-2.4-.1,78.24,78.24,0,0,0,.7,8.1,33.26,33.26,0,0,0,18.9,5.8A33.75,33.75,0,1,0,35.3,0Z"/><path class="cls-2" d="M30.8,8c.7-.8,1.4-1.6,2.1-2.3a58.59,58.59,0,0,0-5-3.7,41.8,41.8,0,0,0-2.8,5.6c1.5.6,3,1.2,4.5,1.9C30.2,8.7,30.7,8.1,30.8,8Z"/><path class="cls-2" d="M7.9,27.3l.1.2.2-.1a50.41,50.41,0,0,1,4.9-3.1l.2-.1V24a38.39,38.39,0,0,1-1.1-5.9v-.2H12a43.62,43.62,0,0,0-7.3,2l-.2.1.1.2A30.3,30.3,0,0,0,7.9,27.3Z"/><path class="cls-2" d="M7.5,30.5l-.2.2a47,47,0,0,0-5.1,4.9l-.2.2.2.2a58.38,58.38,0,0,0,5.6,4.2l.2.1.1-.2a45.3,45.3,0,0,1,3-4.6l.1-.2-.1-.1a52,52,0,0,1-3.5-4.4Z"/><path class="cls-2" d="M20.8,51.8h.6l-.5-.4a20.73,20.73,0,0,1-4.6-5.2v-.1l-.4-.2v.3a45.53,45.53,0,0,0-.4,5.3v.2h.2c.8,0,1.6.1,2.4.1A12.19,12.19,0,0,0,20.8,51.8Z"/><path class="cls-2" d="M19.7,14.5a39.43,39.43,0,0,1,1.4-4.9,46.94,46.94,0,0,0-6.5-1.4,48.47,48.47,0,0,0-.1,6.6A44.05,44.05,0,0,1,19.7,14.5Z"/><path class="cls-2" d="M22.9,14.4a29.18,29.18,0,0,1,4.7-2.3A27.49,27.49,0,0,0,24,10.6C23.6,11.8,23.2,13.1,22.9,14.4Z"/><path class="cls-2" d="M7.2,41.8,7,41.7a57.36,57.36,0,0,1-5-3.6l-.5-.4.1.6a31.56,31.56,0,0,0,2.7,9.4l.2.5.2-.5a55.47,55.47,0,0,1,2.4-5.6Z"/><path class="cls-2" d="M11.5,9.8a33.47,33.47,0,0,0-5.2,6.7c1.7-.5,3.5-.9,5.3-1.3C11.5,13.4,11.5,11.6,11.5,9.8Z"/><path class="cls-2" d="M12.5,33.5v-.6a23.54,23.54,0,0,1,1-6l.2-.6-.5.3c-1.3.8-2.6,1.6-3.9,2.5l-.2.1.3.2c.9,1.2,1.8,2.5,2.8,3.6Z"/><path class="cls-2" d="M12.8,37l-.1-.6-.3.5c-.9,1.3-1.8,2.7-2.6,4.1l-.1.2.2.1c1.4.8,2.9,1.5,4.4,2.2l.5.2-.2-.5A23.11,23.11,0,0,1,12.8,37Z"/><path class="cls-2" d="M6.2,28.9l.2-.1-.1-.2a54.49,54.49,0,0,1-2.9-5.3l-.2-.5-.2.6a33.77,33.77,0,0,0-1.6,9.5v.6l.4-.4A24.93,24.93,0,0,1,6.2,28.9Z"/><path class="cls-3" d="M431.45,14.76a19.45,19.45,0,1,1-19.38,19.5A19.41,19.41,0,0,1,431.45,14.76Zm0,35.11a15.67,15.67,0,1,0-15.6-15.61A15.69,15.69,0,0,0,431.45,49.87Z"/><path class="cls-3" d="M459.15,16.33a1,1,0,0,1,1-1h14a11.61,11.61,0,0,1,11.77,11.51c0,5-3.3,9.12-8,11l7.39,13.72a1,1,0,0,1-.91,1.57h-2.76a.92.92,0,0,1-.86-.49l-7.18-14.31H463.31V52.08a1.06,1.06,0,0,1-1,1h-2.11a1,1,0,0,1-1-1ZM473.9,34.75a7.75,7.75,0,1,0,0-15.5H463.42v15.5Z"/><path class="cls-3" d="M512.67,14.76a19,19,0,0,1,13.07,5,1,1,0,0,1,0,1.51c-.49.49-1.08,1-1.51,1.51s-.81.49-1.41,0a16.39,16.39,0,0,0-10.26-4.22,15.23,15.23,0,0,0-15,15.5c0,8.32,6.48,15.61,15,15.61a20.31,20.31,0,0,0,9.72-2.27V39.82h-6.21a1,1,0,0,1-1-1v-2a1,1,0,0,1,1-1h9.35a1,1,0,0,1,1,1V49.22a1.34,1.34,0,0,1-.43.86,26.63,26.63,0,0,1-13.34,3.57,19.45,19.45,0,1,1,0-38.89Z"/></svg>